<svg width="100" height="20" viewBox="0 0 100 20" fill="none" xmlns="http://www.w3.org/2000/svg">
<path d="M13.185 6.64812C12.8697 6.12888 12.4339 5.73018 11.8776 5.45202C11.3398 5.17385 10.7 5.03477 9.95828 5.03477C8.586 5.03477 7.50116 5.47983 6.70376 6.36996C5.9249 7.26008 5.53547 8.45619 5.53547 9.95827C5.53547 11.6458 5.95271 12.9346 6.78721 13.8248C7.64024 14.6963 8.87344 15.1321 10.4868 15.1321C12.3968 15.1321 13.7599 14.2698 14.5758 12.5452H9.09597V8.62309H19.2768V13.9082C18.8503 14.9467 18.2198 15.9203 17.3853 16.8289C16.5693 17.7376 15.5308 18.4886 14.2698 19.0821C13.0088 19.6569 11.5716 19.9444 9.95828 19.9444C7.99258 19.9444 6.24942 19.5271 4.72879 18.6926C3.2267 17.8396 2.05841 16.662 1.22392 15.1599C0.407974 13.6393 0 11.9054 0 9.95827C0 8.02967 0.407974 6.31432 1.22392 4.81224C2.05841 3.29161 3.2267 2.11405 4.72879 1.27955C6.23088 0.426518 7.96477 0 9.93046 0C12.3968 0 14.4367 0.593417 16.0501 1.78025C17.6634 2.96708 18.6648 4.58971 19.0542 6.64812H13.185Z" fill="#22D3EE"/>
<path d="M28.9801 20C27.4224 20 26.0223 19.6755 24.7799 19.0264C23.5559 18.3774 22.5916 17.4502 21.887 16.2448C21.1823 15.0394 20.8299 13.6208 20.8299 11.9889C20.8299 10.3755 21.1823 8.96616 21.887 7.76078C22.6102 6.5554 23.5838 5.62819 24.8077 4.97914C26.0501 4.33009 27.4502 4.00556 29.008 4.00556C30.5657 4.00556 31.9565 4.33009 33.1804 4.97914C34.4229 5.62819 35.3965 6.5554 36.1011 7.76078C36.8244 8.96616 37.186 10.3755 37.186 11.9889C37.186 13.6022 36.8244 15.0209 36.1011 16.2448C35.3965 17.4502 34.4229 18.3774 33.1804 19.0264C31.938 19.6755 30.5379 20 28.9801 20ZM28.9801 15.2712C29.7405 15.2712 30.371 14.993 30.8717 14.4367C31.3909 13.8618 31.6505 13.0459 31.6505 11.9889C31.6505 10.9318 31.3909 10.1252 30.8717 9.56884C30.371 9.01252 29.7497 8.73435 29.008 8.73435C28.2662 8.73435 27.645 9.01252 27.1443 9.56884C26.6436 10.1252 26.3932 10.9318 26.3932 11.9889C26.3932 13.0644 26.6343 13.8804 27.1164 14.4367C27.5986 14.993 28.2198 15.2712 28.9801 15.2712Z" fill="#22D3EE"/>
<path d="M54.8979 6.73157C54.8979 7.9184 54.6197 9.00324 54.0634 9.98609C53.5256 10.9504 52.7004 11.7293 51.5877 12.3227C50.4936 12.8975 49.1491 13.185 47.5543 13.185H44.8561V19.8053H39.4041V0.194714H47.5543C49.1306 0.194714 50.4658 0.472878 51.5599 1.02921C52.6726 1.58553 53.507 2.35512 54.0634 3.33797C54.6197 4.32082 54.8979 5.45202 54.8979 6.73157ZM47.0258 8.84562C48.565 8.84562 49.3346 8.14094 49.3346 6.73157C49.3346 5.30366 48.565 4.58971 47.0258 4.58971H44.8561V8.84562H47.0258Z" fill="#1F2937"/>
<path d="M64.3483 20C62.7906 20 61.3905 19.6755 60.148 19.0264C58.9241 18.3774 57.9598 17.4502 57.2551 16.2448C56.5504 15.0394 56.1981 13.6208 56.1981 11.9889C56.1981 10.3755 56.5504 8.96616 57.2551 7.76078C57.9783 6.5554 58.9519 5.62819 60.1758 4.97914C61.4183 4.33009 62.8184 4.00556 64.3761 4.00556C65.9338 4.00556 67.3246 4.33009 68.5486 4.97914C69.791 5.62819 70.7646 6.5554 71.4693 7.76078C72.1925 8.96616 72.5541 10.3755 72.5541 11.9889C72.5541 13.6022 72.1925 15.0209 71.4693 16.2448C70.7646 17.4502 69.791 18.3774 68.5486 19.0264C67.3061 19.6755 65.906 20 64.3483 20ZM64.3483 15.2712C65.1086 15.2712 65.7391 14.993 66.2398 14.4367C66.759 13.8618 67.0186 13.0459 67.0186 11.9889C67.0186 10.9318 66.759 10.1252 66.2398 9.56884C65.7391 9.01252 65.1179 8.73435 64.3761 8.73435C63.6343 8.73435 63.0131 9.01252 62.5124 9.56884C62.0117 10.1252 61.7613 10.9318 61.7613 11.9889C61.7613 13.0644 62.0024 13.8804 62.4846 14.4367C62.9667 14.993 63.588 15.2712 64.3483 15.2712Z" fill="#1F2937"/>
<path d="M81.4204 20C80.011 20 78.75 19.7682 77.6373 19.3046C76.5432 18.8224 75.6717 18.1734 75.0226 17.3574C74.3921 16.5229 74.0398 15.5865 73.9656 14.548H79.2507C79.3249 15.0487 79.5567 15.4381 79.9461 15.7163C80.3355 15.9944 80.8177 16.1335 81.3926 16.1335C81.8376 16.1335 82.19 16.0408 82.4496 15.8554C82.7092 15.6699 82.839 15.4288 82.839 15.1321C82.839 14.7427 82.6258 14.4553 82.1992 14.2698C81.7727 14.0844 81.068 13.8804 80.0852 13.6579C78.9725 13.4353 78.0453 13.185 77.3036 12.9068C76.5618 12.6286 75.9127 12.1743 75.3564 11.5438C74.8186 10.9133 74.5497 10.0603 74.5497 8.9847C74.5497 8.05749 74.8001 7.22299 75.3008 6.48122C75.8015 5.72091 76.534 5.11822 77.4983 4.67316C78.4811 4.22809 79.6587 4.00556 81.0309 4.00556C83.0708 4.00556 84.6749 4.50626 85.8432 5.50765C87.0115 6.50904 87.6883 7.82568 87.8738 9.45758H82.9503C82.8576 8.95688 82.635 8.57673 82.2827 8.31711C81.9489 8.03894 81.4946 7.89986 80.9197 7.89986C80.4746 7.89986 80.1315 7.98331 79.8905 8.15021C79.6679 8.31711 79.5567 8.54891 79.5567 8.84562C79.5567 9.2165 79.7699 9.50394 80.1965 9.70793C80.623 9.89337 81.3091 10.0881 82.2549 10.2921C83.3861 10.5331 84.3226 10.802 85.0643 11.0987C85.8246 11.3955 86.483 11.8776 87.0393 12.5452C87.6142 13.1943 87.9016 14.0844 87.9016 15.2156C87.9016 16.1242 87.6327 16.9402 87.0949 17.6634C86.5757 18.3866 85.8246 18.9615 84.8418 19.388C83.8775 19.796 82.737 20 81.4204 20Z" fill="#1F2937"/>
<path d="M99.7892 15.1599V19.8053H97.4248C93.4378 19.8053 91.4443 17.8303 91.4443 13.8804V8.73435H89.525V4.20028H91.4443V0.417246H96.9241V4.20028H99.7614V8.73435H96.9241V13.9638C96.9241 14.3904 97.0168 14.6963 97.2023 14.8818C97.4063 15.0672 97.7401 15.1599 98.2037 15.1599H99.7892Z" fill="#1F2937"/>
</svg>
